<mxfile host="Electron" modified="2023-06-04T11:18:39.398Z" agent="Mozilla/5.0 (Macintosh; Intel Mac OS X 10_15_7) AppleWebKit/537.36 (KHTML, like Gecko) draw.io/21.2.8 Chrome/112.0.5615.165 Electron/24.2.0 Safari/537.36" etag="O0IXsw3l43V7kTihLT_j" version="21.2.8" type="device">
  <diagram id="R2lEEEUBdFMjLlhIrx00" name="Page-1">
    <mxGraphModel dx="2213" dy="2063" grid="1" gridSize="10" guides="1" tooltips="1" connect="1" arrows="1" fold="1" page="1" pageScale="1" pageWidth="850" pageHeight="1100" math="0" shadow="0" extFonts="Permanent Marker^https://fonts.googleapis.com/css?family=Permanent+Marker">
      <root>
        <mxCell id="0" />
        <mxCell id="1" parent="0" />
        <mxCell id="F6JR0Fy0pAlnIxH36zJ5-1" value="&lt;font style=&quot;font-size: 16px;&quot;&gt;users&lt;/font&gt;" style="rounded=0;whiteSpace=wrap;html=1;" vertex="1" parent="1">
          <mxGeometry x="270" y="300" width="100" height="50" as="geometry" />
        </mxCell>
        <mxCell id="F6JR0Fy0pAlnIxH36zJ5-4" value="memiliki" style="rhombus;whiteSpace=wrap;html=1;" vertex="1" parent="1">
          <mxGeometry x="450" y="300" width="120" height="50" as="geometry" />
        </mxCell>
        <mxCell id="F6JR0Fy0pAlnIxH36zJ5-17" value="" style="endArrow=none;html=1;rounded=0;exitX=1;exitY=0.5;exitDx=0;exitDy=0;entryX=0;entryY=0.5;entryDx=0;entryDy=0;align=center;verticalAlign=middle;fontSize=11;" edge="1" parent="1" source="F6JR0Fy0pAlnIxH36zJ5-1" target="F6JR0Fy0pAlnIxH36zJ5-4">
          <mxGeometry width="50" height="50" relative="1" as="geometry">
            <mxPoint x="500" y="320" as="sourcePoint" />
            <mxPoint x="550" y="270" as="targetPoint" />
          </mxGeometry>
        </mxCell>
        <mxCell id="F6JR0Fy0pAlnIxH36zJ5-18" value="&lt;font style=&quot;font-size: 16px;&quot;&gt;1&lt;/font&gt;" style="edgeLabel;html=1;align=center;verticalAlign=middle;resizable=0;points=[];fontSize=16;" vertex="1" connectable="0" parent="F6JR0Fy0pAlnIxH36zJ5-17">
          <mxGeometry x="0.7" y="-2" relative="1" as="geometry">
            <mxPoint x="-30" y="1" as="offset" />
          </mxGeometry>
        </mxCell>
        <mxCell id="F6JR0Fy0pAlnIxH36zJ5-19" value="&lt;font style=&quot;&quot;&gt;&lt;font style=&quot;font-size: 14px;&quot;&gt;devices&lt;/font&gt;&lt;br&gt;&lt;/font&gt;" style="rounded=0;whiteSpace=wrap;html=1;" vertex="1" parent="1">
          <mxGeometry x="630" y="300" width="100" height="50" as="geometry" />
        </mxCell>
        <mxCell id="F6JR0Fy0pAlnIxH36zJ5-20" value="" style="endArrow=none;html=1;rounded=0;exitX=1;exitY=0.5;exitDx=0;exitDy=0;entryX=0;entryY=0.5;entryDx=0;entryDy=0;" edge="1" parent="1" source="F6JR0Fy0pAlnIxH36zJ5-4" target="F6JR0Fy0pAlnIxH36zJ5-19">
          <mxGeometry width="50" height="50" relative="1" as="geometry">
            <mxPoint x="610" y="430" as="sourcePoint" />
            <mxPoint x="660" y="380" as="targetPoint" />
          </mxGeometry>
        </mxCell>
        <mxCell id="F6JR0Fy0pAlnIxH36zJ5-21" value="1" style="edgeLabel;html=1;align=center;verticalAlign=middle;resizable=0;points=[];fontSize=16;" vertex="1" connectable="0" parent="F6JR0Fy0pAlnIxH36zJ5-20">
          <mxGeometry x="0.025" y="1" relative="1" as="geometry">
            <mxPoint as="offset" />
          </mxGeometry>
        </mxCell>
        <mxCell id="F6JR0Fy0pAlnIxH36zJ5-22" value="memiliki" style="rhombus;whiteSpace=wrap;html=1;" vertex="1" parent="1">
          <mxGeometry x="725" y="402" width="120" height="50" as="geometry" />
        </mxCell>
        <mxCell id="F6JR0Fy0pAlnIxH36zJ5-24" value="1" style="endArrow=none;html=1;rounded=0;exitX=0;exitY=0.5;exitDx=0;exitDy=0;entryX=0.5;entryY=1;entryDx=0;entryDy=0;fontSize=16;verticalAlign=middle;" edge="1" parent="1" source="F6JR0Fy0pAlnIxH36zJ5-22" target="F6JR0Fy0pAlnIxH36zJ5-19">
          <mxGeometry x="0.5082" width="50" height="50" relative="1" as="geometry">
            <mxPoint x="630" y="280" as="sourcePoint" />
            <mxPoint x="660" y="320" as="targetPoint" />
            <Array as="points">
              <mxPoint x="680" y="427" />
            </Array>
            <mxPoint as="offset" />
          </mxGeometry>
        </mxCell>
        <mxCell id="F6JR0Fy0pAlnIxH36zJ5-25" value="&lt;font style=&quot;&quot;&gt;&lt;font style=&quot;font-size: 14px;&quot;&gt;device_data&lt;/font&gt;&lt;br&gt;&lt;/font&gt;" style="rounded=0;whiteSpace=wrap;html=1;" vertex="1" parent="1">
          <mxGeometry x="905" y="402" width="100" height="50" as="geometry" />
        </mxCell>
        <mxCell id="F6JR0Fy0pAlnIxH36zJ5-28" value="" style="endArrow=none;html=1;rounded=0;entryX=1;entryY=0.5;entryDx=0;entryDy=0;exitX=0;exitY=0.5;exitDx=0;exitDy=0;" edge="1" parent="1" source="F6JR0Fy0pAlnIxH36zJ5-25" target="F6JR0Fy0pAlnIxH36zJ5-22">
          <mxGeometry width="50" height="50" relative="1" as="geometry">
            <mxPoint x="630" y="390" as="sourcePoint" />
            <mxPoint x="680" y="340" as="targetPoint" />
            <Array as="points" />
          </mxGeometry>
        </mxCell>
        <mxCell id="F6JR0Fy0pAlnIxH36zJ5-30" value="M" style="edgeLabel;html=1;align=center;verticalAlign=middle;resizable=0;points=[];fontSize=12;" vertex="1" connectable="0" parent="F6JR0Fy0pAlnIxH36zJ5-28">
          <mxGeometry x="0.0154" relative="1" as="geometry">
            <mxPoint as="offset" />
          </mxGeometry>
        </mxCell>
        <mxCell id="F6JR0Fy0pAlnIxH36zJ5-32" value="" style="endArrow=none;html=1;rounded=0;entryX=1;entryY=1;entryDx=0;entryDy=0;exitX=0.5;exitY=0;exitDx=0;exitDy=0;" edge="1" parent="1" source="F6JR0Fy0pAlnIxH36zJ5-19" target="F6JR0Fy0pAlnIxH36zJ5-33">
          <mxGeometry width="50" height="50" relative="1" as="geometry">
            <mxPoint x="680" y="250" as="sourcePoint" />
            <mxPoint x="730" y="200" as="targetPoint" />
          </mxGeometry>
        </mxCell>
        <mxCell id="F6JR0Fy0pAlnIxH36zJ5-33" value="&lt;u&gt;&lt;font style=&quot;font-size: 14px;&quot;&gt;id&lt;/font&gt;&lt;/u&gt;" style="ellipse;whiteSpace=wrap;html=1;" vertex="1" parent="1">
          <mxGeometry x="550" y="110" width="80" height="50" as="geometry" />
        </mxCell>
        <mxCell id="F6JR0Fy0pAlnIxH36zJ5-34" value="&lt;span style=&quot;font-size: 14px;&quot;&gt;token&lt;/span&gt;" style="ellipse;whiteSpace=wrap;html=1;" vertex="1" parent="1">
          <mxGeometry x="600" y="50" width="80" height="50" as="geometry" />
        </mxCell>
        <mxCell id="F6JR0Fy0pAlnIxH36zJ5-35" value="" style="endArrow=none;html=1;rounded=0;entryX=0.5;entryY=1;entryDx=0;entryDy=0;exitX=0.5;exitY=0;exitDx=0;exitDy=0;" edge="1" parent="1" source="F6JR0Fy0pAlnIxH36zJ5-19" target="F6JR0Fy0pAlnIxH36zJ5-34">
          <mxGeometry width="50" height="50" relative="1" as="geometry">
            <mxPoint x="690" y="260" as="sourcePoint" />
            <mxPoint x="710" y="180" as="targetPoint" />
          </mxGeometry>
        </mxCell>
        <mxCell id="F6JR0Fy0pAlnIxH36zJ5-36" value="&lt;span style=&quot;font-size: 14px;&quot;&gt;name&lt;/span&gt;" style="ellipse;whiteSpace=wrap;html=1;" vertex="1" parent="1">
          <mxGeometry x="690" y="40" width="80" height="50" as="geometry" />
        </mxCell>
        <mxCell id="F6JR0Fy0pAlnIxH36zJ5-37" value="&lt;span style=&quot;font-size: 14px;&quot;&gt;created_at&lt;/span&gt;" style="ellipse;whiteSpace=wrap;html=1;" vertex="1" parent="1">
          <mxGeometry x="790" y="135" width="80" height="50" as="geometry" />
        </mxCell>
        <mxCell id="F6JR0Fy0pAlnIxH36zJ5-38" value="&lt;span style=&quot;font-size: 14px;&quot;&gt;user_id&lt;/span&gt;" style="ellipse;whiteSpace=wrap;html=1;" vertex="1" parent="1">
          <mxGeometry x="770" y="80" width="80" height="50" as="geometry" />
        </mxCell>
        <mxCell id="F6JR0Fy0pAlnIxH36zJ5-39" value="" style="endArrow=none;html=1;rounded=0;exitX=0.5;exitY=0;exitDx=0;exitDy=0;entryX=0.375;entryY=0.98;entryDx=0;entryDy=0;entryPerimeter=0;" edge="1" parent="1" source="F6JR0Fy0pAlnIxH36zJ5-19" target="F6JR0Fy0pAlnIxH36zJ5-36">
          <mxGeometry width="50" height="50" relative="1" as="geometry">
            <mxPoint x="740" y="290" as="sourcePoint" />
            <mxPoint x="790" y="240" as="targetPoint" />
          </mxGeometry>
        </mxCell>
        <mxCell id="F6JR0Fy0pAlnIxH36zJ5-40" value="&lt;span style=&quot;font-size: 14px;&quot;&gt;updated_at&lt;/span&gt;" style="ellipse;whiteSpace=wrap;html=1;" vertex="1" parent="1">
          <mxGeometry x="780" y="190" width="80" height="50" as="geometry" />
        </mxCell>
        <mxCell id="F6JR0Fy0pAlnIxH36zJ5-41" value="" style="endArrow=none;html=1;rounded=0;exitX=0.5;exitY=0;exitDx=0;exitDy=0;entryX=0;entryY=1;entryDx=0;entryDy=0;" edge="1" parent="1" source="F6JR0Fy0pAlnIxH36zJ5-19" target="F6JR0Fy0pAlnIxH36zJ5-38">
          <mxGeometry width="50" height="50" relative="1" as="geometry">
            <mxPoint x="620" y="320" as="sourcePoint" />
            <mxPoint x="780" y="150" as="targetPoint" />
            <Array as="points" />
          </mxGeometry>
        </mxCell>
        <mxCell id="F6JR0Fy0pAlnIxH36zJ5-44" value="" style="endArrow=none;html=1;rounded=0;entryX=0.038;entryY=0.68;entryDx=0;entryDy=0;exitX=0.5;exitY=0;exitDx=0;exitDy=0;entryPerimeter=0;" edge="1" parent="1" source="F6JR0Fy0pAlnIxH36zJ5-19" target="F6JR0Fy0pAlnIxH36zJ5-37">
          <mxGeometry width="50" height="50" relative="1" as="geometry">
            <mxPoint x="720" y="250" as="sourcePoint" />
            <mxPoint x="770" y="200" as="targetPoint" />
          </mxGeometry>
        </mxCell>
        <mxCell id="F6JR0Fy0pAlnIxH36zJ5-45" value="" style="endArrow=none;html=1;rounded=0;exitX=0.5;exitY=0;exitDx=0;exitDy=0;entryX=0;entryY=0.5;entryDx=0;entryDy=0;" edge="1" parent="1" source="F6JR0Fy0pAlnIxH36zJ5-19" target="F6JR0Fy0pAlnIxH36zJ5-40">
          <mxGeometry width="50" height="50" relative="1" as="geometry">
            <mxPoint x="760" y="300" as="sourcePoint" />
            <mxPoint x="780" y="220" as="targetPoint" />
          </mxGeometry>
        </mxCell>
        <mxCell id="F6JR0Fy0pAlnIxH36zJ5-61" value="&lt;u&gt;&lt;font style=&quot;font-size: 14px;&quot;&gt;id&lt;/font&gt;&lt;/u&gt;" style="ellipse;whiteSpace=wrap;html=1;" vertex="1" parent="1">
          <mxGeometry x="130" y="522" width="80" height="50" as="geometry" />
        </mxCell>
        <mxCell id="F6JR0Fy0pAlnIxH36zJ5-62" value="" style="endArrow=none;html=1;rounded=0;entryX=0.5;entryY=0;entryDx=0;entryDy=0;exitX=0;exitY=0.5;exitDx=0;exitDy=0;" edge="1" target="F6JR0Fy0pAlnIxH36zJ5-61" parent="1" source="F6JR0Fy0pAlnIxH36zJ5-1">
          <mxGeometry width="50" height="50" relative="1" as="geometry">
            <mxPoint x="280" y="250" as="sourcePoint" />
            <mxPoint x="330" y="200" as="targetPoint" />
          </mxGeometry>
        </mxCell>
        <mxCell id="F6JR0Fy0pAlnIxH36zJ5-63" value="" style="endArrow=none;html=1;rounded=0;entryX=1;entryY=0;entryDx=0;entryDy=0;exitX=0;exitY=0.5;exitDx=0;exitDy=0;" edge="1" target="F6JR0Fy0pAlnIxH36zJ5-64" parent="1" source="F6JR0Fy0pAlnIxH36zJ5-1">
          <mxGeometry width="50" height="50" relative="1" as="geometry">
            <mxPoint x="280" y="250" as="sourcePoint" />
            <mxPoint x="310" y="180" as="targetPoint" />
          </mxGeometry>
        </mxCell>
        <mxCell id="F6JR0Fy0pAlnIxH36zJ5-64" value="&lt;span style=&quot;font-size: 14px;&quot;&gt;full_name&lt;/span&gt;" style="ellipse;whiteSpace=wrap;html=1;" vertex="1" parent="1">
          <mxGeometry x="70" y="470" width="80" height="50" as="geometry" />
        </mxCell>
        <mxCell id="F6JR0Fy0pAlnIxH36zJ5-65" value="&lt;span style=&quot;font-size: 14px;&quot;&gt;phone_number&lt;/span&gt;" style="ellipse;whiteSpace=wrap;html=1;" vertex="1" parent="1">
          <mxGeometry x="20" y="412" width="120" height="50" as="geometry" />
        </mxCell>
        <mxCell id="F6JR0Fy0pAlnIxH36zJ5-66" value="" style="endArrow=none;html=1;rounded=0;exitX=0;exitY=0.5;exitDx=0;exitDy=0;" edge="1" target="F6JR0Fy0pAlnIxH36zJ5-65" parent="1" source="F6JR0Fy0pAlnIxH36zJ5-1">
          <mxGeometry width="50" height="50" relative="1" as="geometry">
            <mxPoint x="280" y="250" as="sourcePoint" />
            <mxPoint x="390" y="240" as="targetPoint" />
          </mxGeometry>
        </mxCell>
        <mxCell id="F6JR0Fy0pAlnIxH36zJ5-67" value="" style="endArrow=none;html=1;rounded=0;exitX=0;exitY=0.5;exitDx=0;exitDy=0;entryX=1;entryY=0;entryDx=0;entryDy=0;" edge="1" target="F6JR0Fy0pAlnIxH36zJ5-68" parent="1" source="F6JR0Fy0pAlnIxH36zJ5-1">
          <mxGeometry width="50" height="50" relative="1" as="geometry">
            <mxPoint x="280" y="250" as="sourcePoint" />
            <mxPoint x="380" y="150" as="targetPoint" />
            <Array as="points" />
          </mxGeometry>
        </mxCell>
        <mxCell id="F6JR0Fy0pAlnIxH36zJ5-68" value="&lt;span style=&quot;font-size: 14px;&quot;&gt;gender&lt;/span&gt;" style="ellipse;whiteSpace=wrap;html=1;" vertex="1" parent="1">
          <mxGeometry y="362" width="80" height="50" as="geometry" />
        </mxCell>
        <mxCell id="F6JR0Fy0pAlnIxH36zJ5-69" value="&lt;span style=&quot;font-size: 14px;&quot;&gt;address&lt;br&gt;&lt;/span&gt;" style="ellipse;whiteSpace=wrap;html=1;" vertex="1" parent="1">
          <mxGeometry x="-10" y="303" width="80" height="50" as="geometry" />
        </mxCell>
        <mxCell id="F6JR0Fy0pAlnIxH36zJ5-70" value="" style="endArrow=none;html=1;rounded=0;exitX=0;exitY=0.5;exitDx=0;exitDy=0;" edge="1" target="F6JR0Fy0pAlnIxH36zJ5-69" parent="1" source="F6JR0Fy0pAlnIxH36zJ5-1">
          <mxGeometry width="50" height="50" relative="1" as="geometry">
            <mxPoint x="280" y="250" as="sourcePoint" />
            <mxPoint x="370" y="200" as="targetPoint" />
          </mxGeometry>
        </mxCell>
        <mxCell id="F6JR0Fy0pAlnIxH36zJ5-71" value="&lt;span style=&quot;font-size: 14px;&quot;&gt;region_id&lt;/span&gt;" style="ellipse;whiteSpace=wrap;html=1;" vertex="1" parent="1">
          <mxGeometry x="-20" y="245" width="80" height="50" as="geometry" />
        </mxCell>
        <mxCell id="F6JR0Fy0pAlnIxH36zJ5-72" value="" style="endArrow=none;html=1;rounded=0;exitX=0;exitY=0.5;exitDx=0;exitDy=0;entryX=1;entryY=0.5;entryDx=0;entryDy=0;" edge="1" target="F6JR0Fy0pAlnIxH36zJ5-71" parent="1" source="F6JR0Fy0pAlnIxH36zJ5-1">
          <mxGeometry width="50" height="50" relative="1" as="geometry">
            <mxPoint x="280" y="250" as="sourcePoint" />
            <mxPoint x="380" y="220" as="targetPoint" />
          </mxGeometry>
        </mxCell>
        <mxCell id="F6JR0Fy0pAlnIxH36zJ5-73" value="&lt;span style=&quot;font-size: 14px;&quot;&gt;lat&lt;/span&gt;" style="ellipse;whiteSpace=wrap;html=1;" vertex="1" parent="1">
          <mxGeometry x="-20" y="185" width="80" height="50" as="geometry" />
        </mxCell>
        <mxCell id="F6JR0Fy0pAlnIxH36zJ5-74" value="" style="endArrow=none;html=1;rounded=0;entryX=1;entryY=0.5;entryDx=0;entryDy=0;exitX=0;exitY=0.5;exitDx=0;exitDy=0;" edge="1" target="F6JR0Fy0pAlnIxH36zJ5-73" parent="1" source="F6JR0Fy0pAlnIxH36zJ5-1">
          <mxGeometry width="50" height="50" relative="1" as="geometry">
            <mxPoint x="280" y="250" as="sourcePoint" />
            <mxPoint x="420" y="290" as="targetPoint" />
          </mxGeometry>
        </mxCell>
        <mxCell id="F6JR0Fy0pAlnIxH36zJ5-75" value="&lt;span style=&quot;font-size: 14px;&quot;&gt;long&lt;/span&gt;" style="ellipse;whiteSpace=wrap;html=1;" vertex="1" parent="1">
          <mxGeometry x="-20" y="120" width="80" height="50" as="geometry" />
        </mxCell>
        <mxCell id="F6JR0Fy0pAlnIxH36zJ5-76" value="" style="endArrow=none;html=1;rounded=0;entryX=1;entryY=1;entryDx=0;entryDy=0;exitX=0;exitY=0.5;exitDx=0;exitDy=0;" edge="1" target="F6JR0Fy0pAlnIxH36zJ5-75" parent="1" source="F6JR0Fy0pAlnIxH36zJ5-1">
          <mxGeometry width="50" height="50" relative="1" as="geometry">
            <mxPoint x="280" y="250" as="sourcePoint" />
            <mxPoint x="317.5" y="442" as="targetPoint" />
          </mxGeometry>
        </mxCell>
        <mxCell id="F6JR0Fy0pAlnIxH36zJ5-77" value="&lt;span style=&quot;font-size: 14px;&quot;&gt;email&lt;/span&gt;" style="ellipse;whiteSpace=wrap;html=1;" vertex="1" parent="1">
          <mxGeometry x="-20" y="60" width="80" height="50" as="geometry" />
        </mxCell>
        <mxCell id="F6JR0Fy0pAlnIxH36zJ5-78" value="" style="endArrow=none;html=1;rounded=0;entryX=1;entryY=1;entryDx=0;entryDy=0;exitX=0;exitY=0;exitDx=0;exitDy=0;" edge="1" target="F6JR0Fy0pAlnIxH36zJ5-77" parent="1" source="F6JR0Fy0pAlnIxH36zJ5-1">
          <mxGeometry width="50" height="50" relative="1" as="geometry">
            <mxPoint x="280" y="250" as="sourcePoint" />
            <mxPoint x="380" y="492" as="targetPoint" />
          </mxGeometry>
        </mxCell>
        <mxCell id="F6JR0Fy0pAlnIxH36zJ5-79" value="" style="endArrow=none;html=1;rounded=0;exitX=0;exitY=0;exitDx=0;exitDy=0;" edge="1" target="F6JR0Fy0pAlnIxH36zJ5-80" parent="1" source="F6JR0Fy0pAlnIxH36zJ5-1">
          <mxGeometry width="50" height="50" relative="1" as="geometry">
            <mxPoint x="340" y="260" as="sourcePoint" />
            <mxPoint x="480" y="502" as="targetPoint" />
          </mxGeometry>
        </mxCell>
        <mxCell id="F6JR0Fy0pAlnIxH36zJ5-80" value="&lt;span style=&quot;font-size: 14px;&quot;&gt;email_verified_at&lt;/span&gt;" style="ellipse;whiteSpace=wrap;html=1;" vertex="1" parent="1">
          <mxGeometry x="-20" y="-10" width="130" height="50" as="geometry" />
        </mxCell>
        <mxCell id="F6JR0Fy0pAlnIxH36zJ5-81" value="&lt;span style=&quot;font-size: 14px;&quot;&gt;password&lt;/span&gt;" style="ellipse;whiteSpace=wrap;html=1;" vertex="1" parent="1">
          <mxGeometry x="80" y="-60" width="80" height="50" as="geometry" />
        </mxCell>
        <mxCell id="F6JR0Fy0pAlnIxH36zJ5-82" value="" style="endArrow=none;html=1;rounded=0;entryX=0.5;entryY=1;entryDx=0;entryDy=0;exitX=0;exitY=0;exitDx=0;exitDy=0;" edge="1" target="F6JR0Fy0pAlnIxH36zJ5-81" parent="1" source="F6JR0Fy0pAlnIxH36zJ5-1">
          <mxGeometry width="50" height="50" relative="1" as="geometry">
            <mxPoint x="490" y="310" as="sourcePoint" />
            <mxPoint x="567.5" y="477" as="targetPoint" />
          </mxGeometry>
        </mxCell>
        <mxCell id="F6JR0Fy0pAlnIxH36zJ5-85" value="&lt;span style=&quot;font-size: 14px;&quot;&gt;remember_token&lt;/span&gt;" style="ellipse;whiteSpace=wrap;html=1;" vertex="1" parent="1">
          <mxGeometry x="170" y="-60" width="120" height="50" as="geometry" />
        </mxCell>
        <mxCell id="F6JR0Fy0pAlnIxH36zJ5-86" value="" style="endArrow=none;html=1;rounded=0;entryX=0.5;entryY=1;entryDx=0;entryDy=0;exitX=0;exitY=0;exitDx=0;exitDy=0;" edge="1" target="F6JR0Fy0pAlnIxH36zJ5-85" parent="1" source="F6JR0Fy0pAlnIxH36zJ5-1">
          <mxGeometry width="50" height="50" relative="1" as="geometry">
            <mxPoint x="290" y="295" as="sourcePoint" />
            <mxPoint x="617.5" y="522" as="targetPoint" />
          </mxGeometry>
        </mxCell>
        <mxCell id="F6JR0Fy0pAlnIxH36zJ5-87" value="&lt;span style=&quot;font-size: 14px;&quot;&gt;is_admin&lt;/span&gt;" style="ellipse;whiteSpace=wrap;html=1;" vertex="1" parent="1">
          <mxGeometry x="290" y="-30" width="120" height="50" as="geometry" />
        </mxCell>
        <mxCell id="F6JR0Fy0pAlnIxH36zJ5-88" value="" style="endArrow=none;html=1;rounded=0;entryX=0;entryY=1;entryDx=0;entryDy=0;exitX=0;exitY=0;exitDx=0;exitDy=0;" edge="1" target="F6JR0Fy0pAlnIxH36zJ5-87" parent="1" source="F6JR0Fy0pAlnIxH36zJ5-1">
          <mxGeometry width="50" height="50" relative="1" as="geometry">
            <mxPoint x="250" y="535" as="sourcePoint" />
            <mxPoint x="577.5" y="762" as="targetPoint" />
          </mxGeometry>
        </mxCell>
        <mxCell id="F6JR0Fy0pAlnIxH36zJ5-89" value="&lt;span style=&quot;font-size: 14px;&quot;&gt;is_active&lt;br&gt;&lt;/span&gt;" style="ellipse;whiteSpace=wrap;html=1;" vertex="1" parent="1">
          <mxGeometry x="330" y="30" width="120" height="50" as="geometry" />
        </mxCell>
        <mxCell id="F6JR0Fy0pAlnIxH36zJ5-90" value="" style="endArrow=none;html=1;rounded=0;entryX=0;entryY=1;entryDx=0;entryDy=0;exitX=0;exitY=0;exitDx=0;exitDy=0;" edge="1" target="F6JR0Fy0pAlnIxH36zJ5-89" parent="1" source="F6JR0Fy0pAlnIxH36zJ5-1">
          <mxGeometry width="50" height="50" relative="1" as="geometry">
            <mxPoint x="350" y="420" as="sourcePoint" />
            <mxPoint x="587.5" y="772" as="targetPoint" />
          </mxGeometry>
        </mxCell>
        <mxCell id="F6JR0Fy0pAlnIxH36zJ5-91" value="&lt;span style=&quot;font-size: 14px;&quot;&gt;deleted_at&lt;/span&gt;" style="ellipse;whiteSpace=wrap;html=1;" vertex="1" parent="1">
          <mxGeometry x="360" y="90" width="120" height="50" as="geometry" />
        </mxCell>
        <mxCell id="F6JR0Fy0pAlnIxH36zJ5-92" value="" style="endArrow=none;html=1;rounded=0;entryX=0;entryY=0.5;entryDx=0;entryDy=0;exitX=0;exitY=0;exitDx=0;exitDy=0;" edge="1" target="F6JR0Fy0pAlnIxH36zJ5-91" parent="1" source="F6JR0Fy0pAlnIxH36zJ5-1">
          <mxGeometry width="50" height="50" relative="1" as="geometry">
            <mxPoint x="300" y="305" as="sourcePoint" />
            <mxPoint x="627.5" y="532" as="targetPoint" />
          </mxGeometry>
        </mxCell>
        <mxCell id="F6JR0Fy0pAlnIxH36zJ5-93" value="&lt;span style=&quot;font-size: 14px;&quot;&gt;created_at&lt;/span&gt;" style="ellipse;whiteSpace=wrap;html=1;" vertex="1" parent="1">
          <mxGeometry x="365" y="140" width="120" height="50" as="geometry" />
        </mxCell>
        <mxCell id="F6JR0Fy0pAlnIxH36zJ5-94" value="" style="endArrow=none;html=1;rounded=0;entryX=0;entryY=1;entryDx=0;entryDy=0;exitX=0;exitY=0;exitDx=0;exitDy=0;" edge="1" target="F6JR0Fy0pAlnIxH36zJ5-93" parent="1" source="F6JR0Fy0pAlnIxH36zJ5-1">
          <mxGeometry width="50" height="50" relative="1" as="geometry">
            <mxPoint x="310" y="315" as="sourcePoint" />
            <mxPoint x="637.5" y="542" as="targetPoint" />
          </mxGeometry>
        </mxCell>
        <mxCell id="F6JR0Fy0pAlnIxH36zJ5-95" value="&lt;span style=&quot;font-size: 14px;&quot;&gt;updated_at&lt;/span&gt;" style="ellipse;whiteSpace=wrap;html=1;" vertex="1" parent="1">
          <mxGeometry x="380" y="200" width="120" height="50" as="geometry" />
        </mxCell>
        <mxCell id="F6JR0Fy0pAlnIxH36zJ5-96" value="" style="endArrow=none;html=1;rounded=0;entryX=0;entryY=0.5;entryDx=0;entryDy=0;exitX=0;exitY=0;exitDx=0;exitDy=0;" edge="1" target="F6JR0Fy0pAlnIxH36zJ5-95" parent="1" source="F6JR0Fy0pAlnIxH36zJ5-1">
          <mxGeometry width="50" height="50" relative="1" as="geometry">
            <mxPoint x="320" y="325" as="sourcePoint" />
            <mxPoint x="647.5" y="552" as="targetPoint" />
          </mxGeometry>
        </mxCell>
        <mxCell id="F6JR0Fy0pAlnIxH36zJ5-101" value="&lt;font style=&quot;&quot;&gt;&lt;font style=&quot;font-size: 14px;&quot;&gt;sub_districts&lt;/font&gt;&lt;br&gt;&lt;/font&gt;" style="rounded=0;whiteSpace=wrap;html=1;" vertex="1" parent="1">
          <mxGeometry x="270" y="530" width="100" height="50" as="geometry" />
        </mxCell>
        <mxCell id="F6JR0Fy0pAlnIxH36zJ5-102" value="memiliki" style="rhombus;whiteSpace=wrap;html=1;" vertex="1" parent="1">
          <mxGeometry x="260" y="402" width="120" height="50" as="geometry" />
        </mxCell>
        <mxCell id="F6JR0Fy0pAlnIxH36zJ5-103" value="" style="endArrow=none;html=1;rounded=0;entryX=0.5;entryY=0;entryDx=0;entryDy=0;exitX=0.5;exitY=1;exitDx=0;exitDy=0;" edge="1" parent="1" source="F6JR0Fy0pAlnIxH36zJ5-1" target="F6JR0Fy0pAlnIxH36zJ5-102">
          <mxGeometry width="50" height="50" relative="1" as="geometry">
            <mxPoint x="245" y="303" as="sourcePoint" />
            <mxPoint x="215" y="550" as="targetPoint" />
          </mxGeometry>
        </mxCell>
        <mxCell id="F6JR0Fy0pAlnIxH36zJ5-104" value="1" style="edgeLabel;html=1;align=center;verticalAlign=middle;resizable=0;points=[];fontSize=13;" vertex="1" connectable="0" parent="F6JR0Fy0pAlnIxH36zJ5-103">
          <mxGeometry x="0.0548" y="-2" relative="1" as="geometry">
            <mxPoint as="offset" />
          </mxGeometry>
        </mxCell>
        <mxCell id="F6JR0Fy0pAlnIxH36zJ5-105" value="" style="endArrow=none;html=1;rounded=0;exitX=0.5;exitY=1;exitDx=0;exitDy=0;entryX=0.5;entryY=0;entryDx=0;entryDy=0;" edge="1" parent="1" source="F6JR0Fy0pAlnIxH36zJ5-102" target="F6JR0Fy0pAlnIxH36zJ5-101">
          <mxGeometry width="50" height="50" relative="1" as="geometry">
            <mxPoint x="280" y="450" as="sourcePoint" />
            <mxPoint x="280" y="500" as="targetPoint" />
          </mxGeometry>
        </mxCell>
        <mxCell id="F6JR0Fy0pAlnIxH36zJ5-106" value="M" style="edgeLabel;html=1;align=center;verticalAlign=middle;resizable=0;points=[];fontSize=12;" vertex="1" connectable="0" parent="F6JR0Fy0pAlnIxH36zJ5-105">
          <mxGeometry x="-0.0028" relative="1" as="geometry">
            <mxPoint as="offset" />
          </mxGeometry>
        </mxCell>
        <mxCell id="F6JR0Fy0pAlnIxH36zJ5-124" value="&lt;span style=&quot;font-size: 14px;&quot;&gt;city_code&lt;/span&gt;" style="ellipse;whiteSpace=wrap;html=1;" vertex="1" parent="1">
          <mxGeometry x="90" y="850" width="80" height="50" as="geometry" />
        </mxCell>
        <mxCell id="F6JR0Fy0pAlnIxH36zJ5-125" value="" style="endArrow=none;html=1;rounded=0;exitX=0.5;exitY=1;exitDx=0;exitDy=0;" edge="1" target="F6JR0Fy0pAlnIxH36zJ5-124" parent="1" source="F6JR0Fy0pAlnIxH36zJ5-101">
          <mxGeometry width="50" height="50" relative="1" as="geometry">
            <mxPoint x="410" y="805" as="sourcePoint" />
            <mxPoint x="527.5" y="972" as="targetPoint" />
          </mxGeometry>
        </mxCell>
        <mxCell id="F6JR0Fy0pAlnIxH36zJ5-126" value="&lt;span style=&quot;font-size: 14px;&quot;&gt;name&lt;/span&gt;" style="ellipse;whiteSpace=wrap;html=1;" vertex="1" parent="1">
          <mxGeometry x="20" y="670" width="80" height="50" as="geometry" />
        </mxCell>
        <mxCell id="F6JR0Fy0pAlnIxH36zJ5-127" value="" style="endArrow=none;html=1;rounded=0;entryX=1;entryY=0;entryDx=0;entryDy=0;exitX=0.5;exitY=1;exitDx=0;exitDy=0;" edge="1" target="F6JR0Fy0pAlnIxH36zJ5-126" parent="1" source="F6JR0Fy0pAlnIxH36zJ5-101">
          <mxGeometry width="50" height="50" relative="1" as="geometry">
            <mxPoint x="410" y="805" as="sourcePoint" />
            <mxPoint x="630" y="820" as="targetPoint" />
          </mxGeometry>
        </mxCell>
        <mxCell id="F6JR0Fy0pAlnIxH36zJ5-128" value="&lt;span style=&quot;font-size: 14px;&quot;&gt;created_at&lt;/span&gt;" style="ellipse;whiteSpace=wrap;html=1;" vertex="1" parent="1">
          <mxGeometry x="270" y="760" width="80" height="50" as="geometry" />
        </mxCell>
        <mxCell id="F6JR0Fy0pAlnIxH36zJ5-129" value="" style="endArrow=none;html=1;rounded=0;exitX=0.5;exitY=1;exitDx=0;exitDy=0;" edge="1" target="F6JR0Fy0pAlnIxH36zJ5-128" parent="1" source="F6JR0Fy0pAlnIxH36zJ5-101">
          <mxGeometry width="50" height="50" relative="1" as="geometry">
            <mxPoint x="410" y="805" as="sourcePoint" />
            <mxPoint x="590" y="750" as="targetPoint" />
          </mxGeometry>
        </mxCell>
        <mxCell id="F6JR0Fy0pAlnIxH36zJ5-130" value="&lt;span style=&quot;font-size: 14px;&quot;&gt;district_code&lt;br&gt;&lt;/span&gt;" style="ellipse;whiteSpace=wrap;html=1;" vertex="1" parent="1">
          <mxGeometry x="50" y="790" width="100" height="50" as="geometry" />
        </mxCell>
        <mxCell id="F6JR0Fy0pAlnIxH36zJ5-131" value="" style="endArrow=none;html=1;rounded=0;exitX=0.5;exitY=1;exitDx=0;exitDy=0;" edge="1" target="F6JR0Fy0pAlnIxH36zJ5-130" parent="1" source="F6JR0Fy0pAlnIxH36zJ5-101">
          <mxGeometry width="50" height="50" relative="1" as="geometry">
            <mxPoint x="410" y="805" as="sourcePoint" />
            <mxPoint x="580" y="730" as="targetPoint" />
          </mxGeometry>
        </mxCell>
        <mxCell id="F6JR0Fy0pAlnIxH36zJ5-132" value="" style="endArrow=none;html=1;rounded=0;exitX=0.5;exitY=1;exitDx=0;exitDy=0;entryX=0.5;entryY=0;entryDx=0;entryDy=0;" edge="1" target="F6JR0Fy0pAlnIxH36zJ5-133" parent="1" source="F6JR0Fy0pAlnIxH36zJ5-101">
          <mxGeometry width="50" height="50" relative="1" as="geometry">
            <mxPoint x="410" y="805" as="sourcePoint" />
            <mxPoint x="590" y="680" as="targetPoint" />
            <Array as="points" />
          </mxGeometry>
        </mxCell>
        <mxCell id="F6JR0Fy0pAlnIxH36zJ5-133" value="&lt;span style=&quot;font-size: 14px;&quot;&gt;province_code&lt;/span&gt;" style="ellipse;whiteSpace=wrap;html=1;" vertex="1" parent="1">
          <mxGeometry x="175" y="810" width="110" height="50" as="geometry" />
        </mxCell>
        <mxCell id="F6JR0Fy0pAlnIxH36zJ5-134" value="&lt;span style=&quot;font-size: 14px;&quot;&gt;updated_at&lt;/span&gt;" style="ellipse;whiteSpace=wrap;html=1;" vertex="1" parent="1">
          <mxGeometry x="320" y="700" width="120" height="50" as="geometry" />
        </mxCell>
        <mxCell id="F6JR0Fy0pAlnIxH36zJ5-135" value="" style="endArrow=none;html=1;rounded=0;exitX=0.5;exitY=1;exitDx=0;exitDy=0;" edge="1" target="F6JR0Fy0pAlnIxH36zJ5-134" parent="1" source="F6JR0Fy0pAlnIxH36zJ5-101">
          <mxGeometry width="50" height="50" relative="1" as="geometry">
            <mxPoint x="410" y="805" as="sourcePoint" />
            <mxPoint x="600" y="770" as="targetPoint" />
          </mxGeometry>
        </mxCell>
        <mxCell id="F6JR0Fy0pAlnIxH36zJ5-136" value="&lt;span style=&quot;font-size: 14px;&quot;&gt;code&lt;/span&gt;" style="ellipse;whiteSpace=wrap;html=1;" vertex="1" parent="1">
          <mxGeometry x="30" y="730" width="80" height="50" as="geometry" />
        </mxCell>
        <mxCell id="F6JR0Fy0pAlnIxH36zJ5-137" value="" style="endArrow=none;html=1;rounded=0;entryX=0.694;entryY=0.042;entryDx=0;entryDy=0;exitX=0.5;exitY=1;exitDx=0;exitDy=0;entryPerimeter=0;" edge="1" target="F6JR0Fy0pAlnIxH36zJ5-136" parent="1" source="F6JR0Fy0pAlnIxH36zJ5-101">
          <mxGeometry width="50" height="50" relative="1" as="geometry">
            <mxPoint x="410" y="805" as="sourcePoint" />
            <mxPoint x="520" y="710" as="targetPoint" />
          </mxGeometry>
        </mxCell>
        <mxCell id="F6JR0Fy0pAlnIxH36zJ5-138" value="" style="endArrow=none;html=1;rounded=0;entryX=1;entryY=0.5;entryDx=0;entryDy=0;exitX=0.5;exitY=1;exitDx=0;exitDy=0;" edge="1" target="F6JR0Fy0pAlnIxH36zJ5-139" parent="1" source="F6JR0Fy0pAlnIxH36zJ5-101">
          <mxGeometry width="50" height="50" relative="1" as="geometry">
            <mxPoint x="410" y="805" as="sourcePoint" />
            <mxPoint x="540" y="730" as="targetPoint" />
          </mxGeometry>
        </mxCell>
        <mxCell id="F6JR0Fy0pAlnIxH36zJ5-139" value="&lt;u&gt;&lt;font style=&quot;font-size: 14px;&quot;&gt;id&lt;/font&gt;&lt;/u&gt;" style="ellipse;whiteSpace=wrap;html=1;" vertex="1" parent="1">
          <mxGeometry x="20" y="610" width="80" height="50" as="geometry" />
        </mxCell>
        <mxCell id="F6JR0Fy0pAlnIxH36zJ5-141" value="memiliki" style="rhombus;whiteSpace=wrap;html=1;" vertex="1" parent="1">
          <mxGeometry x="520" y="530" width="120" height="50" as="geometry" />
        </mxCell>
        <mxCell id="F6JR0Fy0pAlnIxH36zJ5-145" value="1" style="endArrow=none;html=1;rounded=0;exitX=0;exitY=0.5;exitDx=0;exitDy=0;entryX=1;entryY=0.5;entryDx=0;entryDy=0;" edge="1" parent="1" source="F6JR0Fy0pAlnIxH36zJ5-141" target="F6JR0Fy0pAlnIxH36zJ5-101">
          <mxGeometry width="50" height="50" relative="1" as="geometry">
            <mxPoint x="410" y="490" as="sourcePoint" />
            <mxPoint x="410" y="578" as="targetPoint" />
          </mxGeometry>
        </mxCell>
        <mxCell id="F6JR0Fy0pAlnIxH36zJ5-146" value="1" style="edgeLabel;html=1;align=center;verticalAlign=middle;resizable=0;points=[];fontSize=12;" vertex="1" connectable="0" parent="F6JR0Fy0pAlnIxH36zJ5-145">
          <mxGeometry x="-0.0028" relative="1" as="geometry">
            <mxPoint as="offset" />
          </mxGeometry>
        </mxCell>
        <mxCell id="F6JR0Fy0pAlnIxH36zJ5-147" value="&lt;u&gt;&lt;font style=&quot;font-size: 14px;&quot;&gt;id&lt;/font&gt;&lt;/u&gt;" style="ellipse;whiteSpace=wrap;html=1;" vertex="1" parent="1">
          <mxGeometry x="210" y="900" width="80" height="50" as="geometry" />
        </mxCell>
        <mxCell id="F6JR0Fy0pAlnIxH36zJ5-148" value="" style="endArrow=none;html=1;rounded=0;entryX=1;entryY=0;entryDx=0;entryDy=0;exitX=0.5;exitY=1;exitDx=0;exitDy=0;" edge="1" target="F6JR0Fy0pAlnIxH36zJ5-147" parent="1" source="F6JR0Fy0pAlnIxH36zJ5-161">
          <mxGeometry width="50" height="50" relative="1" as="geometry">
            <mxPoint x="785" y="680" as="sourcePoint" />
            <mxPoint x="1005" y="830" as="targetPoint" />
          </mxGeometry>
        </mxCell>
        <mxCell id="F6JR0Fy0pAlnIxH36zJ5-149" value="&lt;span style=&quot;font-size: 14px;&quot;&gt;name&lt;/span&gt;" style="ellipse;whiteSpace=wrap;html=1;" vertex="1" parent="1">
          <mxGeometry x="210" y="975" width="80" height="50" as="geometry" />
        </mxCell>
        <mxCell id="F6JR0Fy0pAlnIxH36zJ5-150" value="" style="endArrow=none;html=1;rounded=0;entryX=0.597;entryY=0.042;entryDx=0;entryDy=0;exitX=0.5;exitY=1;exitDx=0;exitDy=0;entryPerimeter=0;" edge="1" target="F6JR0Fy0pAlnIxH36zJ5-149" parent="1" source="F6JR0Fy0pAlnIxH36zJ5-161">
          <mxGeometry width="50" height="50" relative="1" as="geometry">
            <mxPoint x="785" y="680" as="sourcePoint" />
            <mxPoint x="1095" y="920" as="targetPoint" />
          </mxGeometry>
        </mxCell>
        <mxCell id="F6JR0Fy0pAlnIxH36zJ5-151" value="&lt;span style=&quot;font-size: 14px;&quot;&gt;code&lt;/span&gt;" style="ellipse;whiteSpace=wrap;html=1;" vertex="1" parent="1">
          <mxGeometry x="240" y="1040" width="80" height="50" as="geometry" />
        </mxCell>
        <mxCell id="F6JR0Fy0pAlnIxH36zJ5-152" value="" style="endArrow=none;html=1;rounded=0;exitX=0.5;exitY=1;exitDx=0;exitDy=0;" edge="1" parent="1" source="F6JR0Fy0pAlnIxH36zJ5-161">
          <mxGeometry width="50" height="50" relative="1" as="geometry">
            <mxPoint x="785" y="680" as="sourcePoint" />
            <mxPoint x="290" y="1040" as="targetPoint" />
          </mxGeometry>
        </mxCell>
        <mxCell id="F6JR0Fy0pAlnIxH36zJ5-153" value="&lt;span style=&quot;font-size: 14px;&quot;&gt;city_code&lt;/span&gt;" style="ellipse;whiteSpace=wrap;html=1;" vertex="1" parent="1">
          <mxGeometry x="320" y="1010" width="80" height="50" as="geometry" />
        </mxCell>
        <mxCell id="F6JR0Fy0pAlnIxH36zJ5-154" value="" style="endArrow=none;html=1;rounded=0;exitX=0.5;exitY=1;exitDx=0;exitDy=0;" edge="1" target="F6JR0Fy0pAlnIxH36zJ5-153" parent="1" source="F6JR0Fy0pAlnIxH36zJ5-161">
          <mxGeometry width="50" height="50" relative="1" as="geometry">
            <mxPoint x="785" y="680" as="sourcePoint" />
            <mxPoint x="992.5" y="1072" as="targetPoint" />
          </mxGeometry>
        </mxCell>
        <mxCell id="F6JR0Fy0pAlnIxH36zJ5-155" value="&lt;span style=&quot;font-size: 14px;&quot;&gt;province_code&lt;/span&gt;" style="ellipse;whiteSpace=wrap;html=1;" vertex="1" parent="1">
          <mxGeometry x="410" y="985" width="110" height="50" as="geometry" />
        </mxCell>
        <mxCell id="F6JR0Fy0pAlnIxH36zJ5-156" value="" style="endArrow=none;html=1;rounded=0;entryX=0.5;entryY=0;entryDx=0;entryDy=0;exitX=0.5;exitY=1;exitDx=0;exitDy=0;" edge="1" target="F6JR0Fy0pAlnIxH36zJ5-155" parent="1" source="F6JR0Fy0pAlnIxH36zJ5-161">
          <mxGeometry width="50" height="50" relative="1" as="geometry">
            <mxPoint x="785" y="680" as="sourcePoint" />
            <mxPoint x="1055" y="780" as="targetPoint" />
            <Array as="points" />
          </mxGeometry>
        </mxCell>
        <mxCell id="F6JR0Fy0pAlnIxH36zJ5-157" value="&lt;span style=&quot;font-size: 14px;&quot;&gt;created_at&lt;/span&gt;" style="ellipse;whiteSpace=wrap;html=1;" vertex="1" parent="1">
          <mxGeometry x="500" y="935" width="80" height="50" as="geometry" />
        </mxCell>
        <mxCell id="F6JR0Fy0pAlnIxH36zJ5-158" value="&lt;span style=&quot;font-size: 14px;&quot;&gt;updated_at&lt;/span&gt;" style="ellipse;whiteSpace=wrap;html=1;" vertex="1" parent="1">
          <mxGeometry x="560" y="875" width="120" height="50" as="geometry" />
        </mxCell>
        <mxCell id="F6JR0Fy0pAlnIxH36zJ5-159" value="" style="endArrow=none;html=1;rounded=0;exitX=0.5;exitY=1;exitDx=0;exitDy=0;entryX=0.5;entryY=0;entryDx=0;entryDy=0;" edge="1" parent="1" source="F6JR0Fy0pAlnIxH36zJ5-141" target="F6JR0Fy0pAlnIxH36zJ5-161">
          <mxGeometry width="50" height="50" relative="1" as="geometry">
            <mxPoint x="330" y="462" as="sourcePoint" />
            <mxPoint x="580" y="660" as="targetPoint" />
          </mxGeometry>
        </mxCell>
        <mxCell id="F6JR0Fy0pAlnIxH36zJ5-160" value="M" style="edgeLabel;html=1;align=center;verticalAlign=middle;resizable=0;points=[];fontSize=12;" vertex="1" connectable="0" parent="F6JR0Fy0pAlnIxH36zJ5-159">
          <mxGeometry x="-0.0028" relative="1" as="geometry">
            <mxPoint as="offset" />
          </mxGeometry>
        </mxCell>
        <mxCell id="F6JR0Fy0pAlnIxH36zJ5-161" value="&lt;font style=&quot;&quot;&gt;&lt;font style=&quot;font-size: 14px;&quot;&gt;districts&lt;/font&gt;&lt;br&gt;&lt;/font&gt;" style="rounded=0;whiteSpace=wrap;html=1;" vertex="1" parent="1">
          <mxGeometry x="530" y="650" width="100" height="50" as="geometry" />
        </mxCell>
        <mxCell id="F6JR0Fy0pAlnIxH36zJ5-162" value="" style="endArrow=none;html=1;rounded=0;entryX=0.5;entryY=0;entryDx=0;entryDy=0;exitX=0.5;exitY=1;exitDx=0;exitDy=0;" edge="1" parent="1" source="F6JR0Fy0pAlnIxH36zJ5-161" target="F6JR0Fy0pAlnIxH36zJ5-157">
          <mxGeometry width="50" height="50" relative="1" as="geometry">
            <mxPoint x="607.5" y="690" as="sourcePoint" />
            <mxPoint x="752.5" y="900" as="targetPoint" />
            <Array as="points" />
          </mxGeometry>
        </mxCell>
        <mxCell id="F6JR0Fy0pAlnIxH36zJ5-163" value="" style="endArrow=none;html=1;rounded=0;entryX=0.361;entryY=0.028;entryDx=0;entryDy=0;exitX=0.5;exitY=1;exitDx=0;exitDy=0;entryPerimeter=0;" edge="1" parent="1" source="F6JR0Fy0pAlnIxH36zJ5-161" target="F6JR0Fy0pAlnIxH36zJ5-158">
          <mxGeometry width="50" height="50" relative="1" as="geometry">
            <mxPoint x="590" y="710" as="sourcePoint" />
            <mxPoint x="756" y="878" as="targetPoint" />
            <Array as="points" />
          </mxGeometry>
        </mxCell>
        <mxCell id="F6JR0Fy0pAlnIxH36zJ5-164" value="&lt;font style=&quot;&quot;&gt;&lt;font style=&quot;font-size: 14px;&quot;&gt;cities&lt;/font&gt;&lt;br&gt;&lt;/font&gt;" style="rounded=0;whiteSpace=wrap;html=1;" vertex="1" parent="1">
          <mxGeometry x="1010" y="650" width="100" height="50" as="geometry" />
        </mxCell>
        <mxCell id="F6JR0Fy0pAlnIxH36zJ5-165" value="&lt;u&gt;&lt;font style=&quot;font-size: 14px;&quot;&gt;id&lt;/font&gt;&lt;/u&gt;" style="ellipse;whiteSpace=wrap;html=1;" vertex="1" parent="1">
          <mxGeometry x="1170" y="520" width="80" height="50" as="geometry" />
        </mxCell>
        <mxCell id="F6JR0Fy0pAlnIxH36zJ5-166" value="" style="endArrow=none;html=1;rounded=0;entryX=0.597;entryY=0.042;entryDx=0;entryDy=0;exitX=1;exitY=0.5;exitDx=0;exitDy=0;entryPerimeter=0;" edge="1" source="F6JR0Fy0pAlnIxH36zJ5-164" target="F6JR0Fy0pAlnIxH36zJ5-168" parent="1">
          <mxGeometry width="50" height="50" relative="1" as="geometry">
            <mxPoint x="1280" y="762.5" as="sourcePoint" />
            <mxPoint x="1805" y="1007.5" as="targetPoint" />
          </mxGeometry>
        </mxCell>
        <mxCell id="F6JR0Fy0pAlnIxH36zJ5-167" value="" style="endArrow=none;html=1;rounded=0;entryX=0;entryY=1;entryDx=0;entryDy=0;exitX=1;exitY=0.5;exitDx=0;exitDy=0;" edge="1" source="F6JR0Fy0pAlnIxH36zJ5-164" target="F6JR0Fy0pAlnIxH36zJ5-165" parent="1">
          <mxGeometry width="50" height="50" relative="1" as="geometry">
            <mxPoint x="1280" y="762.5" as="sourcePoint" />
            <mxPoint x="1715" y="917.5" as="targetPoint" />
          </mxGeometry>
        </mxCell>
        <mxCell id="F6JR0Fy0pAlnIxH36zJ5-168" value="&lt;span style=&quot;font-size: 14px;&quot;&gt;name&lt;/span&gt;" style="ellipse;whiteSpace=wrap;html=1;" vertex="1" parent="1">
          <mxGeometry x="1260" y="560" width="80" height="50" as="geometry" />
        </mxCell>
        <mxCell id="F6JR0Fy0pAlnIxH36zJ5-169" value="" style="endArrow=none;html=1;rounded=0;entryX=0;entryY=0.5;entryDx=0;entryDy=0;exitX=1;exitY=0.5;exitDx=0;exitDy=0;" edge="1" source="F6JR0Fy0pAlnIxH36zJ5-164" target="F6JR0Fy0pAlnIxH36zJ5-170" parent="1">
          <mxGeometry width="50" height="50" relative="1" as="geometry">
            <mxPoint x="1280" y="762.5" as="sourcePoint" />
            <mxPoint x="1695" y="897.5" as="targetPoint" />
          </mxGeometry>
        </mxCell>
        <mxCell id="F6JR0Fy0pAlnIxH36zJ5-170" value="&lt;span style=&quot;font-size: 14px;&quot;&gt;code&lt;/span&gt;" style="ellipse;whiteSpace=wrap;html=1;" vertex="1" parent="1">
          <mxGeometry x="1300" y="610" width="80" height="50" as="geometry" />
        </mxCell>
        <mxCell id="F6JR0Fy0pAlnIxH36zJ5-173" value="&lt;span style=&quot;font-size: 14px;&quot;&gt;province_code&lt;/span&gt;" style="ellipse;whiteSpace=wrap;html=1;" vertex="1" parent="1">
          <mxGeometry x="1330" y="660" width="110" height="50" as="geometry" />
        </mxCell>
        <mxCell id="F6JR0Fy0pAlnIxH36zJ5-174" value="&lt;span style=&quot;font-size: 14px;&quot;&gt;created_at&lt;/span&gt;" style="ellipse;whiteSpace=wrap;html=1;" vertex="1" parent="1">
          <mxGeometry x="1370" y="720" width="80" height="50" as="geometry" />
        </mxCell>
        <mxCell id="F6JR0Fy0pAlnIxH36zJ5-175" value="&lt;span style=&quot;font-size: 14px;&quot;&gt;updated_at&lt;/span&gt;" style="ellipse;whiteSpace=wrap;html=1;" vertex="1" parent="1">
          <mxGeometry x="1230" y="760" width="120" height="50" as="geometry" />
        </mxCell>
        <mxCell id="F6JR0Fy0pAlnIxH36zJ5-176" value="" style="endArrow=none;html=1;rounded=0;entryX=0;entryY=0.5;entryDx=0;entryDy=0;exitX=1;exitY=0.5;exitDx=0;exitDy=0;" edge="1" source="F6JR0Fy0pAlnIxH36zJ5-164" target="F6JR0Fy0pAlnIxH36zJ5-174" parent="1">
          <mxGeometry width="50" height="50" relative="1" as="geometry">
            <mxPoint x="1280" y="762.5" as="sourcePoint" />
            <mxPoint x="1462.5" y="987.5" as="targetPoint" />
            <Array as="points" />
          </mxGeometry>
        </mxCell>
        <mxCell id="F6JR0Fy0pAlnIxH36zJ5-177" value="" style="endArrow=none;html=1;rounded=0;entryX=0;entryY=0.5;entryDx=0;entryDy=0;exitX=1;exitY=0.5;exitDx=0;exitDy=0;" edge="1" source="F6JR0Fy0pAlnIxH36zJ5-164" target="F6JR0Fy0pAlnIxH36zJ5-173" parent="1">
          <mxGeometry width="50" height="50" relative="1" as="geometry">
            <mxPoint x="1280" y="762.5" as="sourcePoint" />
            <mxPoint x="1765" y="867.5" as="targetPoint" />
            <Array as="points" />
          </mxGeometry>
        </mxCell>
        <mxCell id="F6JR0Fy0pAlnIxH36zJ5-178" value="" style="endArrow=none;html=1;rounded=0;entryX=0;entryY=0;entryDx=0;entryDy=0;exitX=1;exitY=0.5;exitDx=0;exitDy=0;" edge="1" target="F6JR0Fy0pAlnIxH36zJ5-175" parent="1" source="F6JR0Fy0pAlnIxH36zJ5-164">
          <mxGeometry width="50" height="50" relative="1" as="geometry">
            <mxPoint x="1280" y="762.5" as="sourcePoint" />
            <mxPoint x="1466" y="965.5" as="targetPoint" />
            <Array as="points" />
          </mxGeometry>
        </mxCell>
        <mxCell id="F6JR0Fy0pAlnIxH36zJ5-179" value="" style="endArrow=none;html=1;rounded=0;exitX=1;exitY=0.5;exitDx=0;exitDy=0;entryX=0;entryY=0.5;entryDx=0;entryDy=0;" edge="1" target="F6JR0Fy0pAlnIxH36zJ5-164" parent="1" source="F6JR0Fy0pAlnIxH36zJ5-181">
          <mxGeometry width="50" height="50" relative="1" as="geometry">
            <mxPoint x="1070" y="605" as="sourcePoint" />
            <mxPoint x="1070" y="685" as="targetPoint" />
          </mxGeometry>
        </mxCell>
        <mxCell id="F6JR0Fy0pAlnIxH36zJ5-180" value="1" style="edgeLabel;html=1;align=center;verticalAlign=middle;resizable=0;points=[];fontSize=12;" vertex="1" connectable="0" parent="F6JR0Fy0pAlnIxH36zJ5-179">
          <mxGeometry x="-0.0028" relative="1" as="geometry">
            <mxPoint as="offset" />
          </mxGeometry>
        </mxCell>
        <mxCell id="F6JR0Fy0pAlnIxH36zJ5-181" value="memiliki" style="rhombus;whiteSpace=wrap;html=1;" vertex="1" parent="1">
          <mxGeometry x="730" y="650" width="120" height="50" as="geometry" />
        </mxCell>
        <mxCell id="F6JR0Fy0pAlnIxH36zJ5-182" value="1" style="endArrow=none;html=1;rounded=0;exitX=0;exitY=0.5;exitDx=0;exitDy=0;entryX=1;entryY=0.5;entryDx=0;entryDy=0;" edge="1" parent="1" source="F6JR0Fy0pAlnIxH36zJ5-181" target="F6JR0Fy0pAlnIxH36zJ5-161">
          <mxGeometry width="50" height="50" relative="1" as="geometry">
            <mxPoint x="805" y="710" as="sourcePoint" />
            <mxPoint x="655" y="710" as="targetPoint" />
          </mxGeometry>
        </mxCell>
        <mxCell id="F6JR0Fy0pAlnIxH36zJ5-183" value="M" style="edgeLabel;html=1;align=center;verticalAlign=middle;resizable=0;points=[];fontSize=12;" vertex="1" connectable="0" parent="F6JR0Fy0pAlnIxH36zJ5-182">
          <mxGeometry x="-0.0028" relative="1" as="geometry">
            <mxPoint as="offset" />
          </mxGeometry>
        </mxCell>
        <mxCell id="F6JR0Fy0pAlnIxH36zJ5-187" value="&lt;font style=&quot;&quot;&gt;&lt;font style=&quot;font-size: 14px;&quot;&gt;provinces&lt;/font&gt;&lt;br&gt;&lt;/font&gt;" style="rounded=0;whiteSpace=wrap;html=1;" vertex="1" parent="1">
          <mxGeometry x="735" y="1020" width="100" height="50" as="geometry" />
        </mxCell>
        <mxCell id="F6JR0Fy0pAlnIxH36zJ5-188" value="" style="endArrow=none;html=1;rounded=0;entryX=0.5;entryY=0;entryDx=0;entryDy=0;exitX=0.5;exitY=1;exitDx=0;exitDy=0;" edge="1" source="F6JR0Fy0pAlnIxH36zJ5-187" target="F6JR0Fy0pAlnIxH36zJ5-189" parent="1">
          <mxGeometry width="50" height="50" relative="1" as="geometry">
            <mxPoint x="1010" y="1075" as="sourcePoint" />
            <mxPoint x="1230" y="1225" as="targetPoint" />
          </mxGeometry>
        </mxCell>
        <mxCell id="F6JR0Fy0pAlnIxH36zJ5-189" value="&lt;u&gt;&lt;font style=&quot;font-size: 14px;&quot;&gt;id&lt;/font&gt;&lt;/u&gt;" style="ellipse;whiteSpace=wrap;html=1;" vertex="1" parent="1">
          <mxGeometry x="555" y="1230" width="80" height="50" as="geometry" />
        </mxCell>
        <mxCell id="F6JR0Fy0pAlnIxH36zJ5-190" value="&lt;span style=&quot;font-size: 14px;&quot;&gt;name&lt;/span&gt;" style="ellipse;whiteSpace=wrap;html=1;" vertex="1" parent="1">
          <mxGeometry x="630" y="1260" width="80" height="50" as="geometry" />
        </mxCell>
        <mxCell id="F6JR0Fy0pAlnIxH36zJ5-191" value="" style="endArrow=none;html=1;rounded=0;entryX=0.597;entryY=0.042;entryDx=0;entryDy=0;exitX=0.5;exitY=1;exitDx=0;exitDy=0;entryPerimeter=0;" edge="1" source="F6JR0Fy0pAlnIxH36zJ5-187" target="F6JR0Fy0pAlnIxH36zJ5-190" parent="1">
          <mxGeometry width="50" height="50" relative="1" as="geometry">
            <mxPoint x="1010" y="1075" as="sourcePoint" />
            <mxPoint x="1320" y="1315" as="targetPoint" />
          </mxGeometry>
        </mxCell>
        <mxCell id="F6JR0Fy0pAlnIxH36zJ5-192" value="" style="endArrow=none;html=1;rounded=0;entryX=0.5;entryY=0;entryDx=0;entryDy=0;exitX=0.5;exitY=1;exitDx=0;exitDy=0;" edge="1" source="F6JR0Fy0pAlnIxH36zJ5-187" target="F6JR0Fy0pAlnIxH36zJ5-193" parent="1">
          <mxGeometry width="50" height="50" relative="1" as="geometry">
            <mxPoint x="1010" y="1075" as="sourcePoint" />
            <mxPoint x="1210" y="1205" as="targetPoint" />
          </mxGeometry>
        </mxCell>
        <mxCell id="F6JR0Fy0pAlnIxH36zJ5-193" value="&lt;span style=&quot;font-size: 14px;&quot;&gt;code&lt;/span&gt;" style="ellipse;whiteSpace=wrap;html=1;" vertex="1" parent="1">
          <mxGeometry x="730" y="1260" width="80" height="50" as="geometry" />
        </mxCell>
        <mxCell id="F6JR0Fy0pAlnIxH36zJ5-194" value="&lt;span style=&quot;font-size: 14px;&quot;&gt;created_at&lt;/span&gt;" style="ellipse;whiteSpace=wrap;html=1;" vertex="1" parent="1">
          <mxGeometry x="810" y="1230" width="80" height="50" as="geometry" />
        </mxCell>
        <mxCell id="F6JR0Fy0pAlnIxH36zJ5-195" value="" style="endArrow=none;html=1;rounded=0;entryX=0;entryY=0;entryDx=0;entryDy=0;exitX=0.5;exitY=1;exitDx=0;exitDy=0;" edge="1" source="F6JR0Fy0pAlnIxH36zJ5-187" target="F6JR0Fy0pAlnIxH36zJ5-194" parent="1">
          <mxGeometry width="50" height="50" relative="1" as="geometry">
            <mxPoint x="832.5" y="1085" as="sourcePoint" />
            <mxPoint x="977.5" y="1295" as="targetPoint" />
            <Array as="points" />
          </mxGeometry>
        </mxCell>
        <mxCell id="F6JR0Fy0pAlnIxH36zJ5-196" value="&lt;span style=&quot;font-size: 14px;&quot;&gt;updated_at&lt;/span&gt;" style="ellipse;whiteSpace=wrap;html=1;" vertex="1" parent="1">
          <mxGeometry x="860" y="1170" width="120" height="50" as="geometry" />
        </mxCell>
        <mxCell id="F6JR0Fy0pAlnIxH36zJ5-197" value="" style="endArrow=none;html=1;rounded=0;entryX=0;entryY=0;entryDx=0;entryDy=0;exitX=0.5;exitY=1;exitDx=0;exitDy=0;" edge="1" source="F6JR0Fy0pAlnIxH36zJ5-187" target="F6JR0Fy0pAlnIxH36zJ5-196" parent="1">
          <mxGeometry width="50" height="50" relative="1" as="geometry">
            <mxPoint x="815" y="1105" as="sourcePoint" />
            <mxPoint x="981" y="1273" as="targetPoint" />
            <Array as="points" />
          </mxGeometry>
        </mxCell>
        <mxCell id="F6JR0Fy0pAlnIxH36zJ5-47" value="&lt;u&gt;&lt;font style=&quot;font-size: 14px;&quot;&gt;id&lt;/font&gt;&lt;/u&gt;" style="ellipse;whiteSpace=wrap;html=1;rotation=0;" vertex="1" parent="1">
          <mxGeometry x="950" y="170" width="80" height="50" as="geometry" />
        </mxCell>
        <mxCell id="F6JR0Fy0pAlnIxH36zJ5-48" value="&lt;span style=&quot;font-size: 14px;&quot;&gt;device_id&lt;/span&gt;" style="ellipse;whiteSpace=wrap;html=1;rotation=0;" vertex="1" parent="1">
          <mxGeometry x="1040" y="190" width="80" height="50" as="geometry" />
        </mxCell>
        <mxCell id="F6JR0Fy0pAlnIxH36zJ5-49" value="&lt;span style=&quot;font-size: 14px;&quot;&gt;filled&lt;br&gt;&lt;/span&gt;" style="ellipse;whiteSpace=wrap;html=1;rotation=0;" vertex="1" parent="1">
          <mxGeometry x="1120" y="230" width="80" height="50" as="geometry" />
        </mxCell>
        <mxCell id="F6JR0Fy0pAlnIxH36zJ5-50" value="&lt;span style=&quot;font-size: 14px;&quot;&gt;created_at&lt;/span&gt;" style="ellipse;whiteSpace=wrap;html=1;rotation=0;" vertex="1" parent="1">
          <mxGeometry x="1130" y="350" width="80" height="50" as="geometry" />
        </mxCell>
        <mxCell id="F6JR0Fy0pAlnIxH36zJ5-52" value="&lt;span style=&quot;font-size: 14px;&quot;&gt;updated_at&lt;/span&gt;" style="ellipse;whiteSpace=wrap;html=1;rotation=0;" vertex="1" parent="1">
          <mxGeometry x="1080" y="412" width="80" height="50" as="geometry" />
        </mxCell>
        <mxCell id="F6JR0Fy0pAlnIxH36zJ5-53" value="" style="endArrow=none;html=1;rounded=0;entryX=0.5;entryY=1;entryDx=0;entryDy=0;exitX=0.5;exitY=0;exitDx=0;exitDy=0;" edge="1" parent="1" source="F6JR0Fy0pAlnIxH36zJ5-25" target="F6JR0Fy0pAlnIxH36zJ5-47">
          <mxGeometry width="50" height="50" relative="1" as="geometry">
            <mxPoint x="1012" y="340" as="sourcePoint" />
            <mxPoint x="1068" y="315" as="targetPoint" />
          </mxGeometry>
        </mxCell>
        <mxCell id="F6JR0Fy0pAlnIxH36zJ5-55" value="" style="endArrow=none;html=1;rounded=0;entryX=0;entryY=1;entryDx=0;entryDy=0;exitX=0.5;exitY=0;exitDx=0;exitDy=0;" edge="1" parent="1" source="F6JR0Fy0pAlnIxH36zJ5-25" target="F6JR0Fy0pAlnIxH36zJ5-48">
          <mxGeometry width="50" height="50" relative="1" as="geometry">
            <mxPoint x="1012" y="340" as="sourcePoint" />
            <mxPoint x="817" y="519" as="targetPoint" />
          </mxGeometry>
        </mxCell>
        <mxCell id="F6JR0Fy0pAlnIxH36zJ5-56" value="&lt;span style=&quot;font-size: 14px;&quot;&gt;unfilled&lt;br&gt;&lt;/span&gt;" style="ellipse;whiteSpace=wrap;html=1;rotation=0;" vertex="1" parent="1">
          <mxGeometry x="1132" y="290" width="80" height="50" as="geometry" />
        </mxCell>
        <mxCell id="F6JR0Fy0pAlnIxH36zJ5-57" value="" style="endArrow=none;html=1;rounded=0;exitX=0;exitY=0.5;exitDx=0;exitDy=0;entryX=0.5;entryY=0;entryDx=0;entryDy=0;" edge="1" parent="1" source="F6JR0Fy0pAlnIxH36zJ5-49" target="F6JR0Fy0pAlnIxH36zJ5-25">
          <mxGeometry width="50" height="50" relative="1" as="geometry">
            <mxPoint x="961" y="437" as="sourcePoint" />
            <mxPoint x="1012" y="340" as="targetPoint" />
          </mxGeometry>
        </mxCell>
        <mxCell id="F6JR0Fy0pAlnIxH36zJ5-58" value="" style="endArrow=none;html=1;rounded=0;entryX=0.5;entryY=0;entryDx=0;entryDy=0;exitX=0;exitY=0.5;exitDx=0;exitDy=0;" edge="1" parent="1" source="F6JR0Fy0pAlnIxH36zJ5-56" target="F6JR0Fy0pAlnIxH36zJ5-25">
          <mxGeometry width="50" height="50" relative="1" as="geometry">
            <mxPoint x="992" y="419" as="sourcePoint" />
            <mxPoint x="1012" y="340" as="targetPoint" />
          </mxGeometry>
        </mxCell>
        <mxCell id="F6JR0Fy0pAlnIxH36zJ5-59" value="" style="endArrow=none;html=1;rounded=0;exitX=0;exitY=0.5;exitDx=0;exitDy=0;entryX=1;entryY=0.5;entryDx=0;entryDy=0;" edge="1" parent="1" source="F6JR0Fy0pAlnIxH36zJ5-50" target="F6JR0Fy0pAlnIxH36zJ5-25">
          <mxGeometry width="50" height="50" relative="1" as="geometry">
            <mxPoint x="1099" y="354" as="sourcePoint" />
            <mxPoint x="1012" y="340" as="targetPoint" />
          </mxGeometry>
        </mxCell>
        <mxCell id="F6JR0Fy0pAlnIxH36zJ5-60" value="" style="endArrow=none;html=1;rounded=0;entryX=1;entryY=0.5;entryDx=0;entryDy=0;exitX=0;exitY=0.5;exitDx=0;exitDy=0;" edge="1" parent="1" source="F6JR0Fy0pAlnIxH36zJ5-52" target="F6JR0Fy0pAlnIxH36zJ5-25">
          <mxGeometry width="50" height="50" relative="1" as="geometry">
            <mxPoint x="972" y="419" as="sourcePoint" />
            <mxPoint x="1012" y="340" as="targetPoint" />
          </mxGeometry>
        </mxCell>
        <mxCell id="F6JR0Fy0pAlnIxH36zJ5-204" value="memiliki" style="rhombus;whiteSpace=wrap;html=1;" vertex="1" parent="1">
          <mxGeometry x="1000" y="830" width="120" height="50" as="geometry" />
        </mxCell>
        <mxCell id="F6JR0Fy0pAlnIxH36zJ5-205" value="" style="endArrow=none;html=1;rounded=0;entryX=1;entryY=0.5;entryDx=0;entryDy=0;exitX=0.5;exitY=1;exitDx=0;exitDy=0;" edge="1" parent="1" source="F6JR0Fy0pAlnIxH36zJ5-204" target="F6JR0Fy0pAlnIxH36zJ5-187">
          <mxGeometry width="50" height="50" relative="1" as="geometry">
            <mxPoint x="1067.5" y="900" as="sourcePoint" />
            <mxPoint x="1072.5" y="1220" as="targetPoint" />
            <Array as="points">
              <mxPoint x="1060" y="1045" />
            </Array>
          </mxGeometry>
        </mxCell>
        <mxCell id="F6JR0Fy0pAlnIxH36zJ5-207" value="1" style="edgeLabel;html=1;align=center;verticalAlign=middle;resizable=0;points=[];fontSize=16;" vertex="1" connectable="0" parent="F6JR0Fy0pAlnIxH36zJ5-205">
          <mxGeometry x="0.2864" y="2" relative="1" as="geometry">
            <mxPoint x="1" as="offset" />
          </mxGeometry>
        </mxCell>
        <mxCell id="F6JR0Fy0pAlnIxH36zJ5-208" value="" style="endArrow=none;html=1;rounded=0;entryX=0.5;entryY=0;entryDx=0;entryDy=0;exitX=0.5;exitY=1;exitDx=0;exitDy=0;" edge="1" parent="1" source="F6JR0Fy0pAlnIxH36zJ5-164" target="F6JR0Fy0pAlnIxH36zJ5-204">
          <mxGeometry width="50" height="50" relative="1" as="geometry">
            <mxPoint x="1015" y="730" as="sourcePoint" />
            <mxPoint x="1010" y="1050" as="targetPoint" />
            <Array as="points" />
          </mxGeometry>
        </mxCell>
        <mxCell id="F6JR0Fy0pAlnIxH36zJ5-209" value="M" style="edgeLabel;html=1;align=center;verticalAlign=middle;resizable=0;points=[];fontSize=16;" vertex="1" connectable="0" parent="F6JR0Fy0pAlnIxH36zJ5-208">
          <mxGeometry x="-0.1915" y="1" relative="1" as="geometry">
            <mxPoint x="-3" y="41" as="offset" />
          </mxGeometry>
        </mxCell>
      </root>
    </mxGraphModel>
  </diagram>
</mxfile>
